<?xml version="1.0" ?><svg enable-background="new 0 0 512 512" id="Layer_1" version="1.1" viewBox="0 0 512 512" xml:space="preserve" xmlns="http://www.w3.org/2000/svg" xmlns:xlink="http://www.w3.org/1999/xlink"><g><g><linearGradient gradientUnits="userSpaceOnUse" id="SVGID_1_" x1="0.0000038" x2="512" y1="256" y2="256"><stop offset="0" style="stop-color:#FFCA05"/><stop offset="1" style="stop-color:#FAAC18"/></linearGradient><circle cx="256" cy="256" fill="url(#SVGID_1_)" r="256"/><linearGradient gradientUnits="userSpaceOnUse" id="SVGID_2_" x1="42.6666679" x2="469.3333435" y1="256.0005188" y2="256.0005188"><stop offset="0" style="stop-color:#FAAC18"/><stop offset="1" style="stop-color:#FFCA05"/></linearGradient><path d="M256,469.3338623c-117.6314697,0-213.3333282-95.7018738-213.3333282-213.3333435    c0-117.6309204,95.7018585-213.333313,213.3333282-213.333313c117.636261,0,213.3333435,95.7024002,213.3333435,213.333313    C469.3333435,373.6319885,373.636261,469.3338623,256,469.3338623z" fill="url(#SVGID_2_)"/></g><g><path d="M170.1840057,233.0016022c0-21.5023956,17.4949341-38.9952087,38.9978638-38.9952087h141.7658539    l-33.42453,33.4245453l6.8682861,6.8682556l45.1494141-45.1498566L324.3914795,144l-6.8682861,6.8682709l33.42453,33.42453    H209.1818695c-26.8602753,0-48.7114716,21.8511963-48.7114716,48.7088013v30.2826691h9.7136078V233.0016022z" opacity="0.3"/><path d="M357.8160095,294.9962769c0,21.5029297-17.4954834,38.9973145-38.9984131,38.9973145H177.0517273    l33.4245453-33.4266663l-6.8682709-6.8677368l-45.1488037,45.1514893L203.6080017,384l6.8682709-6.8677368l-33.4245453-33.42453    h141.7658691c26.8608093,0,48.7114563-21.8517456,48.7114563-48.7114563v-30.282135h-9.7130432V294.9962769z" opacity="0.3"/></g><g><path d="M162.1840057,225.0016022c0-21.5023956,17.4949341-38.9952087,38.9978638-38.9952087h141.7658539    l-33.42453,33.4245453l6.8682861,6.8682556l45.1494141-45.1498566L316.3914795,136l-6.8682861,6.8682709l33.42453,33.42453    H201.1818695c-26.8602753,0-48.7114716,21.8511963-48.7114716,48.7088013v30.2826691h9.7136078V225.0016022z" fill="#FFFFFF"/><path d="M349.8160095,286.9962769c0,21.5029297-17.4954834,38.9973145-38.9984131,38.9973145H169.0517273    l33.4245453-33.4266663l-6.8682709-6.8677368l-45.1488037,45.1514893L195.6080017,376l6.8682709-6.8677368l-33.4245453-33.42453    h141.7658691c26.8608093,0,48.7114563-21.8517456,48.7114563-48.7114563v-30.282135h-9.7130432V286.9962769z" fill="#FFFFFF"/></g></g></svg>