<svg viewBox="0 0 512 512" xmlns="http://www.w3.org/2000/svg"><circle cx="256" cy="256" r="250" fill="#f1c410"/><path d="M499.8 311.6c-.2-.4-.6-.8-1-1.3-32.4-32.3-64.7-64.7-97.1-97l-1.5-1.5c-3-2.9-6.5-4.9-10.6-5.7-2.8-.6-5.7-.9-8.5-1.4-8.1-1.2-16.3-2.4-24.4-3.5-1.7-.2-2.9-.9-4.1-2.1-26.2-26.3-52.5-52.5-78.7-78.8l-1.5-1.5c-9.6-9.1-25.3-7.8-33.3 2.7-1.5 1.9-2.5 4.1-3.5 6.2-10.5 21.2-21 42.5-31.4 63.8-1.1 2.2-2.6 3.3-4.9 3.6-11.5 1.6-22.9 3.2-34.4 4.9-12.7 1.9-25.4 3.7-38.2 5.6-9.1 1.3-15.5 6.3-18.5 15s-1 16.5 5.3 23.2c1.7 1.8 3.5 3.5 5.3 5.3 16.2 16.2 32.3 32.4 48.6 48.5 1.1 1 1.5 2 1.2 3.5-1.7 9.3-3.3 18.7-4.9 28.1-2.2 12.8-4.4 25.6-6.6 38.5-.6 3.4-1.3 6.7-1.4 10 .1 6.7 2.6 12.2 7.3 16.8 36.3 36.3 72.7 72.6 108.9 109 .8.8 1.6 1.4 2.5 1.8 110.6-7.9 201.4-88.1 225.4-193.7z" fill="#f49c13"/><path d="M334.9 399.7c-3.6 0-7.1-.9-10.4-2.6l-66.4-34.9c-1.3-.7-2.9-.7-4.2 0l-66.4 34.9c-7.6 4-16.6 3.3-23.6-1.7-6.9-5-10.3-13.4-8.9-21.9l12.7-73.9c.2-1.5-.2-2.9-1.3-4l-53.7-52.3c-6.1-6-8.3-14.8-5.7-22.9 2.7-8.2 9.6-14 18.1-15.2l74.2-10.8c1.5-.2 2.7-1.1 3.4-2.4l33.2-67.3c3.8-7.7 11.5-12.5 20.1-12.5s16.3 4.8 20.1 12.5l33.2 67.2c.7 1.3 1.9 2.2 3.4 2.4l74.2 10.8c8.5 1.2 15.4 7.1 18.1 15.2 2.7 8.2.5 16.9-5.7 22.9l-53.7 52.3c-1.1 1-1.5 2.5-1.3 4l12.7 73.9c1.5 8.5-2 16.8-8.9 21.9-4 3-8.6 4.4-13.2 4.4zM256 343.8c3.6 0 7.1.9 10.4 2.6l66.4 34.9c2.2 1.2 4 .2 4.7-.3.7-.5 2.2-1.9 1.8-4.4l-12.7-73.9c-1.2-7.3 1.2-14.7 6.4-19.8l53.7-52.3c1.8-1.8 1.4-3.8 1.1-4.6-.3-.8-1.1-2.7-3.6-3L310 212.1c-7.3-1.1-13.6-5.6-16.8-12.2L260 132.6c-1.1-2.3-3.2-2.5-4-2.5-.8 0-2.9.2-4 2.5l-33.2 67.3c-3.3 6.6-9.6 11.2-16.8 12.2l-74.2 10.8c-2.5.4-3.4 2.2-3.6 3-.3.8-.7 2.8 1.1 4.6l53.7 52.3c5.3 5.1 7.7 12.5 6.4 19.8l-12.7 73.9c-.4 2.5 1.1 3.9 1.8 4.4.7.5 2.5 1.5 4.7.3l66.4-34.9c3.3-1.6 6.8-2.5 10.4-2.5z" fill="#fff"/></svg>